<?xml version="1.0" encoding="utf-8"?>
<!-- Generator: Adobe Illustrator 24.0.1, SVG Export Plug-In . SVG Version: 6.00 Build 0)  -->
<svg version="1.1" xmlns="http://www.w3.org/2000/svg" xmlns:xlink="http://www.w3.org/1999/xlink" x="0px" y="0px"
	 viewBox="0 0 97.2 89.8" style="enable-background:new 0 0 97.2 89.8;" xml:space="preserve">
<g id="Capa_2">
</g>
<g id="Capa_1">
	<path d="M96.3,79.2L77.8,68.5V37.8L51.2,22.4V2h-4.7v20.4L19.8,37.8v30.8L1.3,79.2l2.4,4.1l18.5-10.7L48.8,88l26.6-15.4l18.5,10.7
		L96.3,79.2z M70.7,39.1L48.8,51.8L26.9,39.1l21.9-12.6L70.7,39.1z M51.2,55.9l21.9-12.7v25.3L51.2,81.2V55.9z M24.5,43.2l21.9,12.7
		v25.3L24.5,68.5V43.2z"/>
	
		<text transform="matrix(1 0 0 1 -1.2449 110.0204)" style="display:none;enable-background:new    ; font-family:'Arial-BoldMT'; font-size:5px;">Created by Adrien Coquet</text>
	
		<text transform="matrix(1 0 0 1 -1.2449 115.0204)" style="display:none;enable-background:new    ; font-family:'Arial-BoldMT'; font-size:5px;">from the Noun Project</text>
</g>
</svg>
