<?xml version="1.0" encoding="utf-8"?>
<!-- Generator: Adobe Illustrator 24.0.1, SVG Export Plug-In . SVG Version: 6.00 Build 0)  -->
<svg version="1.1"
	 id="Capa_1" xmlns:cc="http://creativecommons.org/ns#" xmlns:dc="http://purl.org/dc/elements/1.1/" xmlns:inkscape="http://www.inkscape.org/namespaces/inkscape" xmlns:rdf="http://www.w3.org/1999/02/22-rdf-syntax-ns#" xmlns:sodipodi="http://sodipodi.sourceforge.net/DTD/sodipodi-0.dtd" xmlns:svg="http://www.w3.org/2000/svg"
	 xmlns="http://www.w3.org/2000/svg" xmlns:xlink="http://www.w3.org/1999/xlink" x="0px" y="0px" viewBox="0 0 100 96.6"
	 style="enable-background:new 0 0 100 96.6;" xml:space="preserve">
<g transform="translate(0,-952.36218)">
	<path d="M19,959.4c-6.6,0-12,5.4-12,12s5.4,12,12,12s12-5.4,12-12S25.6,959.4,19,959.4z M19,963.4c4.4,0,8,3.6,8,8s-3.6,8-8,8
		s-8-3.6-8-8S14.6,963.4,19,963.4z M71,985.4c-6.4,0-10.7,2.7-14,5.8v-1.8c0-1-1-2-2-2H39c-1,0-2,1-2,2v54c0,1,1,2,2,2h17
		c1,0,2-1,2-2v-30c0-2.5,0.8-4.9,2-6.6s2.6-2.4,4-2.4h2c1.4,0,2.9,0.8,4,2.4s2,4,2,6.6v30c0,1,1,2,2,2h17c1,0,2-1,2-2v-11
		c0-1.1-0.9-2-2-2s-2,1-2,2v9H76v-28c0-3.3-1-6.5-2.7-8.9s-4.3-4.1-7.3-4.1h-2c-3,0-5.6,1.7-7.3,4.1s-2.7,5.5-2.7,8.9v12
		c-0.4,0-0.8,0-1.2,0c-1,0-2,1-1.9,2.1c0,1,1,2,2.1,1.9h1v4c-0.4,0-0.8,0-1.2,0c-1,0-2,1-1.9,2.1c0,1,1,2,2.1,1.9h1v4H41v-50h12v5
		c0,0.8,0.6,1.6,1.3,1.9c0.8,0.3,1.7,0,2.2-0.6c3.4-4.2,6.9-8.3,14.4-8.3c7.2,0,11.5,1.8,14.1,5s3.9,7.9,3.9,14v16c0,1.1,0.9,2,2,2
		s2-1,2-2v-16c0-6.7-1.2-12.5-4.8-16.6S78.9,985.4,71,985.4z M10.8,987.4c-1,0.1-1.8,1-1.8,2v54c0,1,1,2,2,2h17c1,0,2-1,2-2v-54
		c0-1-1-2-2-2C22.3,987.4,16.5,987.4,10.8,987.4z M13,991.4h13v34c-0.4,0-0.8,0-1.2,0c-1,0-2,1-1.9,2.1c0,1,1,2,2.1,1.9h1v4
		c-0.4,0-0.8,0-1.2,0c-1,0-2,1-1.9,2.1c0,1,1,2,2.1,1.9h1v4H13V991.4z"/>
</g>
<text transform="matrix(1 0 0 1 0 115)" style="display:none;enable-background:new    ; font-family:'Arial-BoldMT'; font-size:5px;">Created by rivda</text>
<text transform="matrix(1 0 0 1 0 120)" style="display:none;enable-background:new    ; font-family:'Arial-BoldMT'; font-size:5px;">from the Noun Project</text>
</svg>
