<?xml version="1.0" encoding="utf-8"?>
<!-- Generator: Adobe Illustrator 24.0.1, SVG Export Plug-In . SVG Version: 6.00 Build 0)  -->
<svg version="1.1" id="Capa_1" xmlns="http://www.w3.org/2000/svg" xmlns:xlink="http://www.w3.org/1999/xlink" x="0px" y="0px"
	 viewBox="0 0 200.8 199" style="enable-background:new 0 0 200.8 199;" xml:space="preserve">
<style type="text/css">
	.st0{display:none;}
	.st1{display:inline;}
	.st2{stroke:#999999;stroke-width:1.0429;stroke-miterlimit:10;}
	.st3{fill:none;stroke:#999999;stroke-width:1.0429;stroke-miterlimit:10;}
</style>
<g class="st0">
	<g class="st1">
		<circle class="st2" cx="99.8" cy="98.5" r="92.4"/>
		<path class="st2" d="M165.7,176.4H33.8c-6.9,0-12.5-5.6-12.5-12.5V32c0-6.9,5.6-12.5,12.5-12.5h131.9c6.9,0,12.5,5.6,12.5,12.5
			v131.9C178.3,170.8,172.6,176.4,165.7,176.4z"/>
		<path class="st2" d="M154.3,190.9H45.6c-6.9,0-12.5-5.6-12.5-12.5V18.6C33,11.7,38.7,6,45.6,6h108.7c6.9,0,12.5,5.6,12.5,12.5
			v159.8C166.8,185.3,161.2,190.9,154.3,190.9z"/>
		<path class="st2" d="M179.7,165.2H19.9c-6.9,0-12.5-5.6-12.5-12.5V44c0-6.9,5.6-12.5,12.5-12.5h159.8c6.9,0,12.5,5.6,12.5,12.5
			v108.7C192.2,159.6,186.6,165.2,179.7,165.2z"/>
		<circle class="st2" cx="99.9" cy="98" r="41.1"/>
		<rect x="0.2" y="-1.9" class="st2" width="199.7" height="200.8"/>
		<line class="st3" x1="0.2" y1="-1.9" x2="199.9" y2="198.9"/>
		<line class="st3" x1="0.2" y1="198.9" x2="199.9" y2="-1.9"/>
		<line class="st3" x1="70.8" y1="-1.9" x2="70.6" y2="198.9"/>
		<line class="st3" x1="100.2" y1="-1.9" x2="99.9" y2="198.9"/>
		<line class="st3" x1="129.3" y1="-1.9" x2="129.1" y2="198.9"/>
		<line class="st3" x1="0.2" y1="69" x2="199.9" y2="68.5"/>
		<line class="st3" x1="0.2" y1="98.2" x2="199.9" y2="97.7"/>
		<line class="st3" x1="-0.1" y1="128.1" x2="199.6" y2="127.5"/>
	</g>
</g>
<g>
	<g>
		<g>
			<path d="M171.8,189h-142c-9.4,0-17-7.6-17-17V30c0-9.4,7.6-17,17-17h142c9.4,0,17,7.6,17,17v142C188.8,181.4,181.1,189,171.8,189
				z M29.8,23c-3.9,0-7,3.1-7,7v142c0,3.9,3.1,7,7,7h142c3.9,0,7-3.1,7-7V30c0-3.9-3.1-7-7-7H29.8z"/>
		</g>
		<g>
			<path d="M63,63.9c4.2-0.7,9.6-1.3,16.6-1.3c8.5,0,14.8,2,18.8,5.6c3.6,3.2,5.9,8,5.9,14c0,6.1-1.8,10.8-5.2,14.3
				c-4.7,4.9-12,7.3-20.4,7.3c-2.6,0-5-0.1-6.9-0.6V130H63V63.9z M71.6,96.2c1.9,0.5,4.3,0.7,7.1,0.7c10.4,0,16.8-5.2,16.8-14.2
				c0-8.9-6.3-13.2-15.8-13.2c-3.8,0-6.6,0.3-8.1,0.7C71.6,70.2,71.6,96.2,71.6,96.2z"/>
			<path d="M112.1,121.2c2.7,1.6,7.2,3.4,11.6,3.4c6.3,0,9.2-3.1,9.2-7.1c0-4.2-2.5-6.3-8.8-8.7c-8.7-3.2-12.8-7.8-12.8-13.6
				c0-7.7,6.3-14.1,16.6-14.1c4.9,0,9.1,1.3,11.7,3l-2.1,6.3c-1.9-1.2-5.4-2.9-9.8-2.9c-5.2,0-7.9,3-7.9,6.5c0,4,2.8,5.8,9,8.2
				c8.2,3.1,12.6,7.2,12.6,14.4c0,8.5-6.6,14.5-17.9,14.5c-5.3,0-10.1-1.4-13.5-3.4L112.1,121.2z"/>
		</g>
	</g>
</g>
<text transform="matrix(1 0 0 1 0 216.81)" style="font-family:'Arial-BoldMT'; font-size:5px;">Created by Alba de la Herrán</text>
<text transform="matrix(1 0 0 1 0 221.81)" style="font-family:'Arial-BoldMT'; font-size:5px;">from the Noun Project</text>
</svg>
