<?xml version="1.0" encoding="utf-8"?>
<!-- Generator: Adobe Illustrator 24.0.1, SVG Export Plug-In . SVG Version: 6.00 Build 0)  -->
<svg version="1.1" id="Capa_1" xmlns="http://www.w3.org/2000/svg" xmlns:xlink="http://www.w3.org/1999/xlink" x="0px" y="0px"
	 viewBox="0 0 90.4 95.4" style="enable-background:new 0 0 90.4 95.4;" xml:space="preserve">
<style type="text/css">
	.st0{display:none;}
	.st1{display:inline;}
	.st2{fill:none;stroke:#9FD3FF;stroke-miterlimit:10;}
	.st3{fill:none;stroke:#000000;stroke-width:3;stroke-linecap:round;stroke-linejoin:round;stroke-miterlimit:10;}
	
		.st4{fill:none;stroke:#000000;stroke-width:2;stroke-linecap:round;stroke-linejoin:round;stroke-miterlimit:10;stroke-dasharray:3,3,2,3,1,3;}
	.st5{fill:none;stroke:#000000;stroke-width:3;stroke-linecap:round;stroke-miterlimit:10;}
	.st6{fill:none;stroke:#000000;stroke-width:3;stroke-linecap:round;stroke-miterlimit:9.9999;}
</style>
<g class="st0">
	<g class="st1">
		<line class="st2" x1="-5.5" y1="0" x2="-5.5" y2="100"/>
		<line class="st2" x1="-0.5" y1="0" x2="-0.5" y2="100"/>
		<line class="st2" x1="4.5" y1="0" x2="4.5" y2="100"/>
		<line class="st2" x1="9.5" y1="0" x2="9.5" y2="100"/>
		<line class="st2" x1="14.5" y1="0" x2="14.5" y2="100"/>
		<line class="st2" x1="19.5" y1="0" x2="19.5" y2="100"/>
		<line class="st2" x1="24.5" y1="0" x2="24.5" y2="100"/>
		<line class="st2" x1="29.5" y1="0" x2="29.5" y2="100"/>
		<line class="st2" x1="34.5" y1="0" x2="34.5" y2="100"/>
		<line class="st2" x1="39.5" y1="0" x2="39.5" y2="100"/>
		<line class="st2" x1="44.5" y1="0" x2="44.5" y2="100"/>
		<line class="st2" x1="49.5" y1="0" x2="49.5" y2="100"/>
		<line class="st2" x1="54.5" y1="0" x2="54.5" y2="100"/>
		<line class="st2" x1="59.5" y1="0" x2="59.5" y2="100"/>
		<line class="st2" x1="64.5" y1="0" x2="64.5" y2="100"/>
		<line class="st2" x1="69.5" y1="0" x2="69.5" y2="100"/>
		<line class="st2" x1="74.5" y1="0" x2="74.5" y2="100"/>
		<line class="st2" x1="79.5" y1="0" x2="79.5" y2="100"/>
		<line class="st2" x1="84.5" y1="0" x2="84.5" y2="100"/>
		<line class="st2" x1="89.5" y1="0" x2="89.5" y2="100"/>
		<line class="st2" x1="94.5" y1="0" x2="94.5" y2="100"/>
	</g>
	<g class="st1">
		<line class="st2" x1="94.5" y1="0" x2="-5.5" y2="0"/>
		<line class="st2" x1="94.5" y1="5" x2="-5.5" y2="5"/>
		<line class="st2" x1="94.5" y1="10" x2="-5.5" y2="10"/>
		<line class="st2" x1="94.5" y1="15" x2="-5.5" y2="15"/>
		<line class="st2" x1="94.5" y1="20" x2="-5.5" y2="20"/>
		<line class="st2" x1="94.5" y1="25" x2="-5.5" y2="25"/>
		<line class="st2" x1="94.5" y1="30" x2="-5.5" y2="30"/>
		<line class="st2" x1="94.5" y1="35" x2="-5.5" y2="35"/>
		<line class="st2" x1="94.5" y1="40" x2="-5.5" y2="40"/>
		<line class="st2" x1="94.5" y1="45" x2="-5.5" y2="45"/>
		<line class="st2" x1="94.5" y1="50" x2="-5.5" y2="50"/>
		<line class="st2" x1="94.5" y1="55" x2="-5.5" y2="55"/>
		<line class="st2" x1="94.5" y1="60" x2="-5.5" y2="60"/>
		<line class="st2" x1="94.5" y1="65" x2="-5.5" y2="65"/>
		<line class="st2" x1="94.5" y1="70" x2="-5.5" y2="70"/>
		<line class="st2" x1="94.5" y1="75" x2="-5.5" y2="75"/>
		<line class="st2" x1="94.5" y1="80" x2="-5.5" y2="80"/>
		<line class="st2" x1="94.5" y1="85" x2="-5.5" y2="85"/>
		<line class="st2" x1="94.5" y1="90" x2="-5.5" y2="90"/>
		<line class="st2" x1="94.5" y1="95" x2="-5.5" y2="95"/>
		<line class="st2" x1="94.5" y1="100" x2="-5.5" y2="100"/>
	</g>
</g>
<g class="st0">
	<g class="st1">
		<rect x="4.5" y="84.3" width="5.7" height="5.7"/>
		<rect x="4.5" y="10" width="5.7" height="5.7"/>
		<rect x="78.8" y="10" width="5.7" height="5.7"/>
		<line class="st3" x1="7.3" y1="84.3" x2="7.3" y2="15.7"/>
		<line class="st3" x1="10.2" y1="12.9" x2="78.8" y2="12.9"/>
		<line class="st3" x1="53.9" y1="40.5" x2="81.9" y2="12.6"/>
		<g>
			<line class="st4" x1="7" y1="12.9" x2="36" y2="41.8"/>
			<line class="st4" x1="18.5" y1="12.9" x2="38" y2="32.4"/>
			<line class="st4" x1="29.9" y1="12.9" x2="56" y2="39"/>
			<line class="st4" x1="41.3" y1="12.9" x2="61.7" y2="33.3"/>
			<line class="st4" x1="52.8" y1="12.9" x2="67.4" y2="27.5"/>
			<line class="st4" x1="64.2" y1="12.9" x2="73.2" y2="21.8"/>
			<line class="st4" x1="7.3" y1="24.6" x2="29.5" y2="46.8"/>
			<line class="st4" x1="7.3" y1="36" x2="22.8" y2="51.6"/>
			<line class="st4" x1="7.3" y1="47.4" x2="17.7" y2="57.9"/>
			<line class="st4" x1="7.3" y1="58.9" x2="17.3" y2="68.9"/>
			<line class="st4" x1="7.3" y1="70.3" x2="14.2" y2="77.2"/>
			<line class="st4" x1="12.8" y1="12.9" x2="36" y2="36.1"/>
			<line class="st4" x1="24.2" y1="12.9" x2="40" y2="28.6"/>
			<line class="st4" x1="35.6" y1="12.9" x2="58.3" y2="35.5"/>
			<line class="st4" x1="47" y1="12.9" x2="64" y2="29.8"/>
			<line class="st4" x1="58.5" y1="12.9" x2="69.7" y2="24.1"/>
			<line class="st4" x1="69.9" y1="12.9" x2="75.4" y2="18.4"/>
			<line class="st4" x1="7.3" y1="18.9" x2="31.8" y2="43.4"/>
			<line class="st4" x1="7.3" y1="30.3" x2="26.3" y2="49.3"/>
			<line class="st4" x1="7.3" y1="41.7" x2="18.9" y2="53.3"/>
			<line class="st4" x1="7.3" y1="53.1" x2="17.3" y2="63.2"/>
			<line class="st4" x1="7.3" y1="64.6" x2="15.2" y2="72.5"/>
			<line class="st4" x1="7.3" y1="76.6" x2="12.2" y2="81.5"/>
		</g>
		<circle class="st3" cx="31.7" cy="62.7" r="3.4"/>
		<path class="st5" d="M15.7,54.4c6.7,6.7-1.4,25.6-8.1,32.3"/>
		<path class="st5" d="M39.9,78.6c-6.7-6.7-25.6,1.4-32.3,8.1"/>
		<line class="st5" x1="7.6" y1="86.7" x2="29.2" y2="65.1"/>
		<path class="st5" d="M15.7,54.4C17.9,56.6,39.1,39,39.1,39"/>
		<path class="st5" d="M39.9,78.6c-2.2-2.2,15.4-23.4,15.4-23.4"/>
		
			<rect x="46.6" y="26.3" transform="matrix(0.7071 -0.7071 0.7071 0.7071 -15.8405 48.6927)" class="st6" width="8.6" height="34.3"/>
	</g>
</g>
<g>
	<path d="M80.8,12v1.4H12.2c0,0,0,0,0,0V12H6.5v5.7h1.4v68.6H6.5V92h5.7v-3.6c3.5-2.9,8.9-5.7,14.1-7.3c6.8-2.1,12.1-1.9,14.6,0.6
		c0.3,0.3,0.7,0.4,1.1,0.4s0.8-0.1,1.1-0.4c0.1-0.1,0.2-0.3,0.3-0.5c0-0.1,0-0.1,0-0.2c0-0.1,0.1-0.2,0.1-0.4c0-0.1,0-0.1,0-0.2
		c0-0.1,0-0.2-0.1-0.3c0-0.1,0-0.1-0.1-0.2c0,0,0-0.1,0-0.1c0.3-2.4,7.6-12.6,14.7-21.1l4,4l8.2-8.2L58.1,42.5l24.8-24.8h3.6V12
		H80.8z M40.8,78c-3.6-1.9-9-1.8-15.5,0.2c-1.7,0.5-3.3,1.2-5,1.9L31.4,69c0.7,0.4,1.4,0.6,2.2,0.6c1.3,0,2.6-0.5,3.5-1.4
		c0.9-0.9,1.4-2.2,1.4-3.5s-0.5-2.6-1.4-3.5c-0.9-0.9-2.2-1.4-3.5-1.4s-2.6,0.5-3.5,1.4c-0.9,0.9-1.4,2.2-1.4,3.5
		c0,0.8,0.2,1.6,0.6,2.2L18.2,78c3.1-7.2,4.8-15.4,2.1-20.5c3.2-1.2,9.3-5,21.4-15l14.1,14.1C45.9,68.7,42.1,74.8,40.8,78z
		 M31.7,64.7c0-0.5,0.2-1,0.6-1.4c0.4-0.4,0.8-0.6,1.4-0.6s1,0.2,1.4,0.6c0.4,0.4,0.6,0.8,0.6,1.4c0,0.5-0.2,1-0.6,1.4
		c-0.7,0.7-2,0.7-2.7,0C31.9,65.7,31.7,65.2,31.7,64.7z M65.9,54.6l-3.9,3.9L39.8,36.4l3.9-3.9L65.9,54.6z M77.4,18.9l-0.5-0.5
		c-0.4-0.4-1-0.4-1.4,0s-0.4,1,0,1.4l0.5,0.5l-1.5,1.5c-0.4-0.3-0.9-0.2-1.3,0.1c-0.3,0.3-0.4,0.9-0.1,1.3l-1.5,1.5
		c-0.4-0.3-0.9-0.3-1.3,0.1C70,25.1,70,25.7,70.3,26l-1.9,1.9c0.1-0.4,0-0.7-0.2-1l-2.1-2.1c-0.4-0.4-1-0.4-1.4,0s-0.4,1,0,1.4
		l2.1,2.1c0.2,0.2,0.5,0.3,0.7,0.3c0.1,0,0.2,0,0.3-0.1L66,30.4L64.6,29c-0.4-0.4-1-0.4-1.4,0s-0.4,1,0,1.4l1.4,1.4l-1.4,1.4
		l-0.7-0.7c-0.4-0.4-1-0.4-1.4,0c-0.4,0.4-0.4,1,0,1.4l0.7,0.7l-1.4,1.4l-0.7-0.7c-0.4-0.4-1-0.4-1.4,0s-0.4,1,0,1.4l0.7,0.7l-2,2
		c-0.1,0-0.2,0.1-0.2,0.1s-0.1,0.1-0.1,0.2l-0.6,0.6L43.8,28.2l-1.4,1.4L41.7,29c-0.4-0.4-1-0.4-1.4,0s-0.4,1,0,1.4l0.6,0.6
		l-1.5,1.5c-0.4-0.3-1-0.3-1.3,0.1c-0.4,0.4-0.4,0.9-0.1,1.3l-1.5,1.5c-0.4-0.3-1-0.3-1.4,0c-0.4,0.4-0.4,1,0,1.4l2,2
		c0.2,0.2,0.5,0.3,0.7,0.3c0.1,0,0.2,0,0.3,0l1.3,1.3c-2.8,2.3-5.7,4.6-8.5,6.7c-0.4-0.3-1-0.3-1.3,0.1c-0.3,0.3-0.4,0.7-0.2,1.1
		c-0.7,0.5-1.4,1-2.1,1.5c-0.2,0-0.4,0.1-0.5,0.3c-0.1,0.1-0.1,0.1-0.1,0.2c-0.9,0.6-1.7,1.2-2.5,1.7c-0.3-0.1-0.7,0-0.9,0.3
		c-0.1,0.1-0.2,0.3-0.3,0.5c-0.8,0.5-1.6,1-2.2,1.3l-0.4-0.4c-0.4-0.4-1-0.4-1.4,0c-0.4,0.3-0.4,0.9-0.1,1.3
		c-0.3,0.1-0.5,0.2-0.7,0.2c0,0-0.1,0-0.1,0c-0.1,0-0.1,0-0.2-0.1c-0.1,0-0.2-0.1-0.3-0.1c-0.1,0-0.1,0-0.2,0c-0.1,0-0.2,0-0.3,0.1
		c-0.1,0-0.1,0-0.2,0.1c-0.2,0.1-0.3,0.2-0.5,0.3c-0.4,0.4-0.5,0.9-0.4,1.3C16,57,16,57.6,16.4,57.9l0.7,0.7
		c0.2,0.2,0.4,0.3,0.7,0.3c0.7,1.3,1,2.9,1,4.7c0-0.2-0.1-0.5-0.3-0.7l-0.7-0.7c-0.4-0.4-1-0.4-1.4,0c-0.4,0.4-0.4,1,0,1.4l0.7,0.7
		c0.2,0.2,0.5,0.3,0.7,0.3s0.5-0.1,0.7-0.3c0.2-0.2,0.3-0.4,0.3-0.7c0,1.5-0.2,3.1-0.5,4.8l-0.5-0.5c-0.4-0.4-1-0.4-1.4,0
		c-0.4,0.4-0.4,1,0,1.4l0.7,0.7c0.2,0.2,0.5,0.3,0.7,0.3c0,0,0,0,0,0c-0.3,1-0.6,2-1,3.1c-0.2,0-0.4,0.1-0.5,0.3
		C16,74,16,74.5,16.3,74.9c-0.3,0.7-0.6,1.4-0.9,2.1l-1.2-1.2c-0.4-0.4-1-0.4-1.4,0s-0.4,1,0,1.4l1.4,1.4c0.1,0.1,0.2,0.1,0.3,0.2
		c-1.1,2.3-2.4,4.4-3.7,6.1v-3.5c0.2,0.1,0.4,0.2,0.6,0.2c0.3,0,0.5-0.1,0.7-0.3c0.4-0.4,0.4-1,0-1.4l-1.3-1.3v-3.5
		c0.2,0.1,0.4,0.2,0.6,0.2c0.3,0,0.5-0.1,0.7-0.3c0.4-0.4,0.4-1,0-1.4l-1.3-1.3v-2.9c0.2,0.1,0.4,0.2,0.6,0.2c0.3,0,0.5-0.1,0.7-0.3
		c0.4-0.4,0.4-1,0-1.4l-1.3-1.3v-2.9c0.2,0.1,0.4,0.2,0.6,0.2c0.3,0,0.5-0.1,0.7-0.3c0.4-0.4,0.4-1,0-1.4L10.8,61v-2.9
		c0.2,0.1,0.4,0.2,0.6,0.2c0.3,0,0.5-0.1,0.7-0.3c0.4-0.4,0.4-1,0-1.4l-1.3-1.3v-2.9c0.2,0.1,0.4,0.2,0.6,0.2c0.3,0,0.5-0.1,0.7-0.3
		c0.4-0.4,0.4-1,0-1.4l-1.3-1.3v-2.9c0.2,0.1,0.4,0.2,0.6,0.2c0.3,0,0.5-0.1,0.7-0.3c0.4-0.4,0.4-1,0-1.4l-1.3-1.3v-2.9
		c0.2,0.1,0.4,0.2,0.6,0.2c0.3,0,0.5-0.1,0.7-0.3c0.4-0.4,0.4-1,0-1.4l-1.3-1.3v-2.9c0.2,0.1,0.4,0.2,0.6,0.2c0.3,0,0.5-0.1,0.7-0.3
		c0.4-0.4,0.4-1,0-1.4l-1.3-1.3v-2.9c0.2,0.1,0.4,0.2,0.6,0.2c0.3,0,0.5-0.1,0.7-0.3c0.4-0.4,0.4-1,0-1.4l-1.3-1.3v-2.9
		c0.2,0.1,0.4,0.2,0.6,0.2c0.3,0,0.5-0.1,0.7-0.3c0.4-0.4,0.4-1,0-1.4L10.8,21v-3.1c0.1,0,0.2,0.1,0.3,0.1c0.2,0,0.5-0.1,0.7-0.3
		h0.4v-1.4c0,0,0,0,0,0h2.7l1.3,1.3c0.2,0.2,0.5,0.3,0.7,0.3s0.5-0.1,0.7-0.3c0.4-0.4,0.4-0.9,0.1-1.3h2.9l1.3,1.3
		c0.2,0.2,0.5,0.3,0.7,0.3s0.5-0.1,0.7-0.3c0.4-0.4,0.4-0.9,0.1-1.3h2.9l1.3,1.3c0.2,0.2,0.5,0.3,0.7,0.3s0.5-0.1,0.7-0.3
		c0.4-0.4,0.4-0.9,0.1-1.3H32l1.3,1.3c0.2,0.2,0.5,0.3,0.7,0.3s0.5-0.1,0.7-0.3c0.4-0.4,0.4-0.9,0.1-1.3h2.9l1.3,1.3
		c0.2,0.2,0.5,0.3,0.7,0.3s0.5-0.1,0.7-0.3c0.4-0.4,0.4-0.9,0.1-1.3h2.9l1.3,1.3c0.2,0.2,0.5,0.3,0.7,0.3s0.5-0.1,0.7-0.3
		c0.4-0.4,0.4-0.9,0.1-1.3h2.9l1.3,1.3c0.2,0.2,0.5,0.3,0.7,0.3s0.5-0.1,0.7-0.3c0.4-0.4,0.4-0.9,0.1-1.3h2.9l1.3,1.3
		c0.2,0.2,0.5,0.3,0.7,0.3s0.5-0.1,0.7-0.3c0.4-0.4,0.4-0.9,0.1-1.3h2.9l1.3,1.3c0.2,0.2,0.5,0.3,0.7,0.3s0.5-0.1,0.7-0.3
		c0.4-0.4,0.4-0.9,0.1-1.3h2.9l1.3,1.3c0.2,0.2,0.5,0.3,0.7,0.3s0.5-0.1,0.7-0.3c0.4-0.4,0.4-0.9,0.1-1.3H72l1.3,1.3
		c0.2,0.2,0.5,0.3,0.7,0.3s0.5-0.1,0.7-0.3c0.4-0.4,0.4-0.9,0.1-1.3H80L77.4,18.9z M26.7,34c-0.4-0.4-0.4-1,0-1.4
		c0.4-0.4,1-0.4,1.4,0l0.7,0.7c0.4,0.4,0.4,1,0,1.4c-0.2,0.2-0.5,0.3-0.7,0.3s-0.5-0.1-0.7-0.3L26.7,34z M24.6,29l1.4,1.4
		c0.4,0.4,0.4,1,0,1.4c-0.2,0.2-0.5,0.3-0.7,0.3s-0.5-0.1-0.7-0.3l-1.4-1.4c-0.4-0.4-0.4-1,0-1.4S24.2,28.6,24.6,29z M29.5,36.8
		c-0.4-0.4-0.4-1,0-1.4s1-0.4,1.4,0l2.1,2.1c0.4,0.4,0.4,1,0,1.4c-0.2,0.2-0.5,0.3-0.7,0.3s-0.5-0.1-0.7-0.3L29.5,36.8z M18.9,26.2
		c-0.4-0.4-0.4-1,0-1.4s1-0.4,1.4,0l2.1,2.1c0.4,0.4,0.4,1,0,1.4c-0.2,0.2-0.5,0.3-0.7,0.3s-0.5-0.1-0.7-0.3L18.9,26.2z M12.6,19.8
		c-0.4-0.4-0.4-1,0-1.4s1-0.4,1.4,0l1.4,1.4c0.4,0.4,0.4,1,0,1.4c-0.2,0.2-0.5,0.3-0.7,0.3s-0.5-0.1-0.7-0.3L12.6,19.8z M35.2,39.6
		l1.4,1.4c0.4,0.4,0.4,1,0,1.4c-0.2,0.2-0.5,0.3-0.7,0.3s-0.5-0.1-0.7-0.3L33.8,41c-0.4-0.4-0.4-1,0-1.4S34.8,39.2,35.2,39.6z
		 M16.1,23.3c-0.4-0.4-0.4-1,0-1.4c0.4-0.4,1-0.4,1.4,0l0.7,0.7c0.4,0.4,0.4,1,0,1.4c-0.2,0.2-0.5,0.3-0.7,0.3s-0.5-0.1-0.7-0.3
		L16.1,23.3z M33.9,26.9c0.4,0.4,0.4,1,0,1.4c-0.2,0.2-0.5,0.3-0.7,0.3s-0.5-0.1-0.7-0.3l-2.1-2.1c-0.4-0.4-0.4-1,0-1.4s1-0.4,1.4,0
		L33.9,26.9z M27.5,23.3c-0.4-0.4-0.4-1,0-1.4s1-0.4,1.4,0l0.7,0.7c0.4,0.4,0.4,1,0,1.4c-0.2,0.2-0.5,0.3-0.7,0.3s-0.5-0.1-0.7-0.3
		L27.5,23.3z M24,19.8c-0.4-0.4-0.4-1,0-1.4s1-0.4,1.4,0l1.4,1.4c0.4,0.4,0.4,1,0,1.4c-0.2,0.2-0.5,0.3-0.7,0.3s-0.5-0.1-0.7-0.3
		L24,19.8z M37.4,30.4c0.4,0.4,0.4,1,0,1.4c-0.2,0.2-0.5,0.3-0.7,0.3S36.2,32,36,31.8l-1.4-1.4c-0.4-0.4-0.4-1,0-1.4s1-0.4,1.4,0
		L37.4,30.4z M51.7,33.2c0.4,0.4,0.4,1,0,1.4C51.5,34.9,51.2,35,51,35s-0.5-0.1-0.7-0.3L49.6,34c-0.4-0.4-0.4-1,0-1.4s1-0.4,1.4,0
		L51.7,33.2z M35.4,19.8c-0.4-0.4-0.4-1,0-1.4s1-0.4,1.4,0l1.4,1.4c0.4,0.4,0.4,1,0,1.4c-0.2,0.2-0.5,0.3-0.7,0.3s-0.5-0.1-0.7-0.3
		L35.4,19.8z M55.9,37.5c0.4,0.4,0.4,1,0,1.4c-0.2,0.2-0.5,0.3-0.7,0.3s-0.5-0.1-0.7-0.3l-2.1-2.1c-0.4-0.4-0.4-1,0-1.4s1-0.4,1.4,0
		L55.9,37.5z M48.9,30.4c0.4,0.4,0.4,1,0,1.4c-0.2,0.2-0.5,0.3-0.7,0.3s-0.5-0.1-0.7-0.3L46,30.4c-0.4-0.4-0.4-1,0-1.4s1-0.4,1.4,0
		L48.9,30.4z M41.1,22.6c0.4,0.4,0.4,1,0,1.4c-0.2,0.2-0.5,0.3-0.7,0.3s-0.5-0.1-0.7-0.3L39,23.3c-0.4-0.4-0.4-1,0-1.4s1-0.4,1.4,0
		L41.1,22.6z M45.3,26.9c0.4,0.4,0.4,1,0,1.4c-0.2,0.2-0.5,0.3-0.7,0.3s-0.5-0.1-0.7-0.3l-2.1-2.1c-0.4-0.4-0.4-1,0-1.4s1-0.4,1.4,0
		L45.3,26.9z M60.3,30.4c0.4,0.4,0.4,1,0,1.4c-0.2,0.2-0.5,0.3-0.7,0.3s-0.5-0.1-0.7-0.3l-1.4-1.4c-0.4-0.4-0.4-1,0-1.4s1-0.4,1.4,0
		L60.3,30.4z M55.3,28.3l-2.1-2.1c-0.4-0.4-0.4-1,0-1.4s1-0.4,1.4,0l2.1,2.1c0.4,0.4,0.4,1,0,1.4c-0.2,0.2-0.5,0.3-0.7,0.3
		S55.5,28.5,55.3,28.3z M46.9,19.8c-0.4-0.4-0.4-1,0-1.4s1-0.4,1.4,0l1.4,1.4c0.4,0.4,0.4,1,0,1.4c-0.2,0.2-0.5,0.3-0.7,0.3
		s-0.5-0.1-0.7-0.3L46.9,19.8z M50.4,23.3c-0.4-0.4-0.4-1,0-1.4s1-0.4,1.4,0l0.7,0.7c0.4,0.4,0.4,1,0,1.4c-0.2,0.2-0.5,0.3-0.7,0.3
		s-0.5-0.1-0.7-0.3L50.4,23.3z M63.9,22.6c0.4,0.4,0.4,1,0,1.4c-0.2,0.2-0.5,0.3-0.7,0.3s-0.5-0.1-0.7-0.3l-0.7-0.7
		c-0.4-0.4-0.4-1,0-1.4s1-0.4,1.4,0L63.9,22.6z M58.3,19.8c-0.4-0.4-0.4-1,0-1.4c0.4-0.4,1-0.4,1.4,0l1.4,1.4c0.4,0.4,0.4,1,0,1.4
		c-0.2,0.2-0.5,0.3-0.7,0.3s-0.5-0.1-0.7-0.3L58.3,19.8z M72.5,19.8c0.4,0.4,0.4,1,0,1.4c-0.2,0.2-0.5,0.3-0.7,0.3s-0.5-0.1-0.7-0.3
		l-1.4-1.4c-0.4-0.4-0.4-1,0-1.4s1-0.4,1.4,0L72.5,19.8z M29.1,45c0.4,0.4,0.4,1,0,1.4c-0.2,0.2-0.5,0.3-0.7,0.3s-0.5-0.1-0.7-0.3
		L27,45.7c-0.4-0.4-0.4-1,0-1.4s1-0.4,1.4,0L29.1,45z M18.5,35.8c-0.2,0.2-0.5,0.3-0.7,0.3s-0.5-0.1-0.7-0.3l-0.7-0.7
		c-0.4-0.4-0.4-1,0-1.4c0.4-0.4,1-0.4,1.4,0l0.7,0.7C18.9,34.7,18.9,35.4,18.5,35.8z M26.2,42.1c0.4,0.4,0.4,1,0,1.4
		c-0.2,0.2-0.5,0.3-0.7,0.3s-0.5-0.1-0.7-0.3l-1.4-1.4c-0.4-0.4-0.4-1,0-1.4s1-0.4,1.4,0L26.2,42.1z M15.6,32.9
		c-0.2,0.2-0.5,0.3-0.7,0.3s-0.5-0.1-0.7-0.3l-1.4-1.4c-0.4-0.4-0.4-1,0-1.4s1-0.4,1.4,0l1.4,1.4C16,31.9,16,32.5,15.6,32.9z
		 M22.7,38.6c0.4,0.4,0.4,1,0,1.4c-0.2,0.2-0.5,0.3-0.7,0.3s-0.5-0.1-0.7-0.3l-2.1-2.1c-0.4-0.4-0.4-1,0-1.4s1-0.4,1.4,0L22.7,38.6z
		 M16.3,46.5c-0.4-0.4-0.4-1,0-1.4c0.4-0.4,1-0.4,1.4,0l0.7,0.7c0.4,0.4,0.4,1,0,1.4c-0.2,0.2-0.5,0.3-0.7,0.3s-0.5-0.1-0.7-0.3
		L16.3,46.5z M15.6,43c0.4,0.4,0.4,1,0,1.4c-0.2,0.2-0.5,0.3-0.7,0.3s-0.5-0.1-0.7-0.3L12.8,43c-0.4-0.4-0.4-1,0-1.4s1-0.4,1.4,0
		L15.6,43z M22.7,50c0.4,0.4,0.4,1,0,1.4c-0.2,0.2-0.5,0.3-0.7,0.3s-0.5-0.1-0.7-0.3l-2.1-2.1c-0.4-0.4-0.4-1,0-1.4s1-0.4,1.4,0
		L22.7,50z M15.6,54.4c0.4,0.4,0.4,1,0,1.4c-0.2,0.2-0.5,0.3-0.7,0.3s-0.5-0.1-0.7-0.3l-1.4-1.4c-0.4-0.4-0.4-1,0-1.4s1-0.4,1.4,0
		L15.6,54.4z M12.8,65.8c-0.4-0.4-0.4-1,0-1.4s1-0.4,1.4,0l1.4,1.4c0.4,0.4,0.4,1,0,1.4c-0.2,0.2-0.5,0.3-0.7,0.3s-0.5-0.1-0.7-0.3
		L12.8,65.8z M33.8,35c-0.3,0-0.5-0.1-0.7-0.3L32.4,34c-0.4-0.4-0.4-1,0-1.4s1-0.4,1.4,0l0.7,0.7c0.4,0.4,0.4,1,0,1.4
		C34.4,34.9,34.1,35,33.8,35z M26.8,28.3l-2.1-2.1c-0.4-0.4-0.4-1,0-1.4s1-0.4,1.4,0l2.1,2.1c0.4,0.4,0.4,1,0,1.4
		c-0.2,0.2-0.5,0.3-0.7,0.3S27,28.5,26.8,28.3z M30.3,31.8l-1.4-1.4c-0.4-0.4-0.4-1,0-1.4s1-0.4,1.4,0l1.4,1.4c0.4,0.4,0.4,1,0,1.4
		c-0.2,0.2-0.5,0.3-0.7,0.3S30.5,32,30.3,31.8z M18.3,19.8c-0.4-0.4-0.4-1,0-1.4s1-0.4,1.4,0l1.4,1.4c0.4,0.4,0.4,1,0,1.4
		c-0.2,0.2-0.5,0.3-0.7,0.3s-0.5-0.1-0.7-0.3L18.3,19.8z M21.8,23.3c-0.4-0.4-0.4-1,0-1.4s1-0.4,1.4,0l0.7,0.7c0.4,0.4,0.4,1,0,1.4
		c-0.2,0.2-0.5,0.3-0.7,0.3s-0.5-0.1-0.7-0.3L21.8,23.3z M39.6,26.9c0.4,0.4,0.4,1,0,1.4c-0.2,0.2-0.5,0.3-0.7,0.3s-0.5-0.1-0.7-0.3
		l-2.1-2.1c-0.4-0.4-0.4-1,0-1.4s1-0.4,1.4,0L39.6,26.9z M29.7,19.8c-0.4-0.4-0.4-1,0-1.4s1-0.4,1.4,0l1.4,1.4c0.4,0.4,0.4,1,0,1.4
		c-0.2,0.2-0.5,0.3-0.7,0.3s-0.5-0.1-0.7-0.3L29.7,19.8z M33.3,23.3c-0.4-0.4-0.4-1,0-1.4s1-0.4,1.4,0l0.7,0.7c0.4,0.4,0.4,1,0,1.4
		c-0.2,0.2-0.5,0.3-0.7,0.3s-0.5-0.1-0.7-0.3L33.3,23.3z M41.1,19.8c-0.4-0.4-0.4-1,0-1.4s1-0.4,1.4,0l1.4,1.4c0.4,0.4,0.4,1,0,1.4
		c-0.2,0.2-0.5,0.3-0.7,0.3s-0.5-0.1-0.7-0.3L41.1,19.8z M51,26.9c0.4,0.4,0.4,1,0,1.4c-0.2,0.2-0.5,0.3-0.7,0.3s-0.5-0.1-0.7-0.3
		l-2.1-2.1c-0.4-0.4-0.4-1,0-1.4s1-0.4,1.4,0L51,26.9z M44.7,23.3c-0.4-0.4-0.4-1,0-1.4s1-0.4,1.4,0l0.7,0.7c0.4,0.4,0.4,1,0,1.4
		c-0.2,0.2-0.5,0.3-0.7,0.3s-0.5-0.1-0.7-0.3L44.7,23.3z M53.2,29l1.4,1.4c0.4,0.4,0.4,1,0,1.4c-0.2,0.2-0.5,0.3-0.7,0.3
		s-0.5-0.1-0.7-0.3l-1.4-1.4c-0.4-0.4-0.4-1,0-1.4S52.8,28.6,53.2,29z M57.4,33.2c0.4,0.4,0.4,1,0,1.4C57.2,34.9,57,35,56.7,35
		s-0.5-0.1-0.7-0.3L55.3,34c-0.4-0.4-0.4-1,0-1.4s1-0.4,1.4,0L57.4,33.2z M62.5,26.9c0.4,0.4,0.4,1,0,1.4c-0.2,0.2-0.5,0.3-0.7,0.3
		s-0.5-0.1-0.7-0.3l-2.1-2.1c-0.4-0.4-0.4-1,0-1.4s1-0.4,1.4,0L62.5,26.9z M56.1,23.3c-0.4-0.4-0.4-1,0-1.4s1-0.4,1.4,0l0.7,0.7
		c0.4,0.4,0.4,1,0,1.4c-0.2,0.2-0.5,0.3-0.7,0.3s-0.5-0.1-0.7-0.3L56.1,23.3z M52.6,19.8c-0.4-0.4-0.4-1,0-1.4s1-0.4,1.4,0l1.4,1.4
		c0.4,0.4,0.4,1,0,1.4c-0.2,0.2-0.5,0.3-0.7,0.3s-0.5-0.1-0.7-0.3L52.6,19.8z M66.8,19.8c0.4,0.4,0.4,1,0,1.4
		c-0.2,0.2-0.5,0.3-0.7,0.3s-0.5-0.1-0.7-0.3L64,19.8c-0.4-0.4-0.4-1,0-1.4c0.4-0.4,1-0.4,1.4,0L66.8,19.8z M69.7,22.6
		c0.4,0.4,0.4,1,0,1.4c-0.2,0.2-0.5,0.3-0.7,0.3s-0.5-0.1-0.7-0.3l-0.7-0.7c-0.4-0.4-0.4-1,0-1.4s1-0.4,1.4,0L69.7,22.6z M26.2,36.4
		c0.4,0.4,0.4,1,0,1.4c-0.2,0.2-0.5,0.3-0.7,0.3S25,38,24.8,37.8l-1.4-1.4c-0.4-0.4-0.4-1,0-1.4s1-0.4,1.4,0L26.2,36.4z M22.7,32.9
		c0.4,0.4,0.4,1,0,1.4c-0.2,0.2-0.5,0.3-0.7,0.3s-0.5-0.1-0.7-0.3l-2.1-2.1c-0.4-0.4-0.4-1,0-1.4s1-0.4,1.4,0L22.7,32.9z M15.6,27.2
		c-0.2,0.2-0.5,0.3-0.7,0.3s-0.5-0.1-0.7-0.3l-1.4-1.4c-0.4-0.4-0.4-1,0-1.4s1-0.4,1.4,0l1.4,1.4C16,26.2,16,26.8,15.6,27.2z
		 M33.3,43.5c0.4,0.4,0.4,1,0,1.4c-0.2,0.2-0.5,0.3-0.7,0.3s-0.5-0.1-0.7-0.3l-2.1-2.1c-0.4-0.4-0.4-1,0-1.4s1-0.4,1.4,0L33.3,43.5z
		 M18.5,30.1c-0.2,0.2-0.5,0.3-0.7,0.3s-0.5-0.1-0.7-0.3l-0.7-0.7c-0.4-0.4-0.4-1,0-1.4c0.4-0.4,1-0.4,1.4,0l0.7,0.7
		C18.9,29,18.9,29.7,18.5,30.1z M29.1,39.2c0.4,0.4,0.4,1,0,1.4c-0.2,0.2-0.5,0.3-0.7,0.3s-0.5-0.1-0.7-0.3L27,40
		c-0.4-0.4-0.4-1,0-1.4s1-0.4,1.4,0L29.1,39.2z M15.6,38.7c-0.2,0.2-0.5,0.3-0.7,0.3s-0.5-0.1-0.7-0.3l-1.4-1.4
		c-0.4-0.4-0.4-1,0-1.4s1-0.4,1.4,0l1.4,1.4C16,37.6,16,38.3,15.6,38.7z M18.5,40.1c0.4,0.4,0.4,1,0,1.4c-0.2,0.2-0.5,0.3-0.7,0.3
		s-0.5-0.1-0.7-0.3l-0.7-0.7c-0.4-0.4-0.4-1,0-1.4c0.4-0.4,1-0.4,1.4,0L18.5,40.1z M22.7,44.3c0.4,0.4,0.4,1,0,1.4
		C22.5,45.9,22.3,46,22,46s-0.5-0.1-0.7-0.3l-2.1-2.1c-0.4-0.4-0.4-1,0-1.4s1-0.4,1.4,0L22.7,44.3z M26.2,47.8c0.4,0.4,0.4,1,0,1.4
		c-0.2,0.2-0.5,0.3-0.7,0.3s-0.5-0.1-0.7-0.3l-1.4-1.4c-0.4-0.4-0.4-1,0-1.4s1-0.4,1.4,0L26.2,47.8z M15.6,48.7c0.4,0.4,0.4,1,0,1.4
		c-0.2,0.2-0.5,0.3-0.7,0.3s-0.5-0.1-0.7-0.3l-1.4-1.4c-0.4-0.4-0.4-1,0-1.4s1-0.4,1.4,0L15.6,48.7z M18.5,51.5c0.4,0.4,0.4,1,0,1.4
		c-0.2,0.2-0.5,0.3-0.7,0.3s-0.5-0.1-0.7-0.3l-0.7-0.7c-0.4-0.4-0.4-1,0-1.4c0.4-0.4,1-0.4,1.4,0L18.5,51.5z M12.8,60.1
		c-0.4-0.4-0.4-1,0-1.4s1-0.4,1.4,0l1.4,1.4c0.4,0.4,0.4,1,0,1.4c-0.2,0.2-0.5,0.3-0.7,0.3s-0.5-0.1-0.7-0.3L12.8,60.1z M15.6,71.5
		c0.4,0.4,0.4,1,0,1.4c-0.2,0.2-0.5,0.3-0.7,0.3s-0.5-0.1-0.7-0.3l-1.4-1.4c-0.4-0.4-0.4-1,0-1.4s1-0.4,1.4,0L15.6,71.5z"/>
</g>
<text transform="matrix(1 0 0 1 -5.5306 115)" style="font-family:'Arial-BoldMT'; font-size:5px;">Created by Valter Bispo</text>
<text transform="matrix(1 0 0 1 -5.5306 120)" style="font-family:'Arial-BoldMT'; font-size:5px;">from the Noun Project</text>
</svg>
