<?xml version="1.0" encoding="utf-8"?>
<!-- Generator: Adobe Illustrator 24.0.1, SVG Export Plug-In . SVG Version: 6.00 Build 0)  -->
<svg version="1.1" id="Capa_1" xmlns="http://www.w3.org/2000/svg" xmlns:xlink="http://www.w3.org/1999/xlink" x="0px" y="0px"
	 viewBox="0 0 100 100.8" style="enable-background:new 0 0 100 100.8;" xml:space="preserve">
<path d="M89.3,2.3H10.7C6,2.3,2.3,6,2.3,10.7v78.7c0,4.6,3.8,8.4,8.4,8.4h78.7c4.6,0,8.4-3.8,8.4-8.4V10.7C97.8,6,94,2.3,89.3,2.3z
	 M10.7,6.3h78.7c2.4,0,4.4,2,4.4,4.4v22.5H76.7C71.1,24.3,61.2,18.4,50,18.4s-21.1,5.9-26.7,14.7h-17V10.7C6.3,8.2,8.2,6.3,10.7,6.3
	z M50,22.4c15.2,0,27.6,12.4,27.6,27.6S65.2,77.6,50,77.6S22.4,65.2,22.4,50S34.8,22.4,50,22.4z M89.3,93.8H10.7
	c-2.4,0-4.4-2-4.4-4.4V37.2h14.9c-1.8,3.9-2.7,8.3-2.7,12.8c0,17.4,14.2,31.6,31.6,31.6S81.6,67.4,81.6,50c0-4.6-1-8.9-2.7-12.8
	h14.9v52.2C93.8,91.8,91.8,93.8,89.3,93.8z"/>
<path d="M50,66.8c9.3,0,16.8-7.6,16.8-16.8c0-9.3-7.6-16.8-16.8-16.8c-9.3,0-16.8,7.6-16.8,16.8C33.2,59.3,40.7,66.8,50,66.8z
	 M50,37.2c7.1,0,12.8,5.8,12.8,12.8S57.1,62.8,50,62.8S37.2,57.1,37.2,50S42.9,37.2,50,37.2z"/>
<text transform="matrix(1 0 0 1 0 115)" style="display:none;enable-background:new    ; font-family:'Arial-BoldMT'; font-size:5px;">Created by Srinivas Agra</text>
<text transform="matrix(1 0 0 1 0 120)" style="display:none;enable-background:new    ; font-family:'Arial-BoldMT'; font-size:5px;">from the Noun Project</text>
</svg>
