<?xml version="1.0" encoding="utf-8"?>
<!-- Generator: Adobe Illustrator 24.0.1, SVG Export Plug-In . SVG Version: 6.00 Build 0)  -->
<svg version="1.1" id="Layer_1" xmlns="http://www.w3.org/2000/svg" xmlns:xlink="http://www.w3.org/1999/xlink" x="0px" y="0px"
	 viewBox="0 0 30.6 34.2" style="enable-background:new 0 0 30.6 34.2;" xml:space="preserve">
<style type="text/css">
	.st0{fill:none;}
	.st1{enable-background:new    ;}
	.st2{fill:#FFFFFF;}
	.st3{font-family:'ArialMT';}
	.st4{font-size:3px;}
	.st5{font-size:6px;}
</style>
<title>file format document</title>
<path d="M27.4,7.6l-6-6c-0.1-0.1-0.2-0.2-0.4-0.2H6.4c-1.1,0-1.9,0.9-1.9,1.9V13c0,0.3,0.2,0.5,0.5,0.5s0.5-0.2,0.5-0.5V3.4
	c0-0.5,0.4-0.9,0.9-0.9h14.1V8c0,0.3,0.2,0.5,0.5,0.5h5.5v20.1c0,0.5-0.4,0.9-0.9,0.9l0,0H6.4c-0.5,0-0.9-0.4-0.9-0.9l0,0V26
	c0-0.3-0.2-0.5-0.5-0.5S4.5,25.7,4.5,26v2.6c0,1.1,0.9,1.9,1.9,1.9h19.1c1.1,0,1.9-0.9,1.9-1.9V8C27.5,7.9,27.4,7.7,27.4,7.6z
	 M21.5,3.2l4.3,4.3h-4.3V3.2z"/>
<path d="M23.5,22.9v-6.8c0-0.9-0.7-1.6-1.6-1.6l0,0H4.1c-0.9,0-1.6,0.7-1.6,1.6l0,0v6.8c0,0.9,0.7,1.6,1.6,1.6l0,0h17.8
	C22.8,24.5,23.5,23.8,23.5,22.9L23.5,22.9z"/>
<rect x="3.3" y="17" class="st0" width="19.4" height="5.9"/>
<text id="Maya" transform="matrix(1 0 0 1 3.3001 21.2856)" class="st1"><tspan x="0" y="0" class="st2 st3 st4">PHOTOSHOP</tspan><tspan x="19.2" y="0" class="st2 st3 st5"> </tspan></text>
</svg>
